HIERARCHY
ROOT Hips
{
	OFFSET 0 0 0
	CHANNELS 6 Xposition Yposition Zposition Yrotation Xrotation Zrotation
	JOINT Spine
	{
		OFFSET -0 8.21101 -2.61726
		CHANNELS 3 Yrotation Xrotation Zrotation
		JOINT Spine1
		{
			OFFSET -0 8.47943 0
			CHANNELS 3 Yrotation Xrotation Zrotation
			JOINT Spine2
			{
				OFFSET -0 8.47943 0
				CHANNELS 3 Yrotation Xrotation Zrotation
				JOINT Spine3
				{
					OFFSET -0 8.47943 0
					CHANNELS 3 Yrotation Xrotation Zrotation
					JOINT Neck
					{
						OFFSET -0 19.6274 1.3685
						CHANNELS 3 Yrotation Xrotation Zrotation
						JOINT Head
						{
							OFFSET -0 10.2638 0
							CHANNELS 3 Yrotation Xrotation Zrotation
							End Site
							{
								OFFSET 0 15 0
							}
						}
					}
					JOINT LeftShoulder
					{
						OFFSET 1.71063 7.40232 3.42126
						CHANNELS 3 Yrotation Xrotation Zrotation
						JOINT LeftArm
						{
							OFFSET 17.4021 0 0
							CHANNELS 3 Yrotation Xrotation Zrotation
							JOINT LeftForeArm
							{
								OFFSET 24.3987 0 0
								CHANNELS 3 Yrotation Xrotation Zrotation
								JOINT LeftHand
								{
									OFFSET 21.1442 0 0
									CHANNELS 3 Yrotation Xrotation Zrotation
									End Site
									{
										OFFSET 15 0 0
									}
								}
							}
						}
					}
					JOINT RightShoulder
					{
						OFFSET -1.71063 7.40232 3.42126
						CHANNELS 3 Yrotation Xrotation Zrotation
						JOINT RightArm
						{
							OFFSET -17.4021 0 0
							CHANNELS 3 Yrotation Xrotation Zrotation
							JOINT RightForeArm
							{
								OFFSET -24.3987 0 0
								CHANNELS 3 Yrotation Xrotation Zrotation
								JOINT RightHand
								{
									OFFSET -21.1442 0 0
									CHANNELS 3 Yrotation Xrotation Zrotation
									End Site
									{
										OFFSET -15 0 0
									}
								}
							}
						}
					}
				}
			}
		}
	}
	JOINT LeftUpLeg
	{
		OFFSET 10.2638 -3.42126 0
		CHANNELS 3 Yrotation Xrotation Zrotation
		JOINT LeftLeg
		{
			OFFSET -0 -35.5366 2.39488
			CHANNELS 3 Yrotation Xrotation Zrotation
			JOINT LeftFoot
			{
				OFFSET -0 -41.0686 -2.39488
				CHANNELS 3 Yrotation Xrotation Zrotation
				JOINT LeftToeBase
				{
					OFFSET -0 -10.8328 15.9103
					CHANNELS 3 Yrotation Xrotation Zrotation
					End Site
					{
						OFFSET 0 0 5
					}
				}
			}
		}
	}
	JOINT RightUpLeg
	{
		OFFSET -10.2638 -3.42126 0
		CHANNELS 3 Yrotation Xrotation Zrotation
		JOINT RightLeg
		{
			OFFSET -0 -35.5366 2.39488
			CHANNELS 3 Yrotation Xrotation Zrotation
			JOINT RightFoot
			{
				OFFSET -0 -41.0686 -2.39488
				CHANNELS 3 Yrotation Xrotation Zrotation
				JOINT RightToeBase
				{
					OFFSET -0 -10.8328 15.9103
					CHANNELS 3 Yrotation Xrotation Zrotation
					End Site
					{
						OFFSET 0 0 5
					}
				}
			}
		}
	}
}
MOTION
Frames: 16
Frame Time: 0.00833333
-88.163568 88.263306 -131.977039 25.392103 -3.591589 -0.937693 -6.079211 -0.714663 -5.884678 -4.639146 -0.984135 -2.825963 -0.234599 -0.902690 -0.307301 1.588131 -1.210396 5.461198 1.973563 1.406855 2.523775 0.860684 -1.278488 -0.620485 6.002251 -0.114987 0.405570 -59.813166 -22.558999 -46.692588 -67.418481 -22.336247 -37.549907 -18.489289 -11.077461 10.972797 -4.537330 1.963520 -5.562692 -17.484003 28.134572 67.438529 4.633282 17.196022 3.942656 20.150446 9.856924 -17.143926 13.440002 -4.206021 -6.326277 0.000000 13.232624 0.000000 -5.796980 -2.937567 0.819735 0.000000 -8.577278 0.000000 -5.907353 -36.684033 1.518389 0.000000 3.787917 0.000000 -6.540635 33.548664 -3.187378 0.000000 -13.282633 0.000000
-88.086298 88.296429 -131.762708 25.274946 -3.582875 -0.909818 -6.264611 -0.649876 -5.648204 -4.854258 -1.337272 -3.030900 -0.014918 -0.797439 -0.777337 1.953923 -1.083022 5.650111 1.967193 1.326881 2.755606 0.852066 -1.003261 -0.775458 5.812401 -0.511242 0.629949 -60.304788 -22.408362 -46.329533 -68.466969 -23.023257 -37.024244 -18.671304 -11.480338 11.026850 -4.540122 1.795390 -5.373797 -17.905587 29.169763 67.312085 4.568903 17.182747 3.511586 20.051341 9.466500 -17.680306 13.772392 -4.028254 -6.263425 0.000000 13.270767 0.000000 -6.022518 -3.111096 0.661766 0.000000 -8.574850 0.000000 -5.722577 -37.618641 1.571722 0.000000 2.995743 0.000000 -7.019107 33.345038 -3.167021 0.000000 -12.632216 0.000000
-87.998047 88.331665 -131.560974 25.215177 -3.597530 -0.933729 -6.550480 -0.719390 -5.204732 -5.033656 -1.367892 -3.395983 0.022353 -0.847644 -1.457809 2.272036 -1.042799 6.152598 2.093879 1.386572 2.880913 0.902363 -0.904018 -0.860672 5.882308 -0.671212 0.749611 -60.867133 -22.263200 -45.906973 -69.134521 -23.630358 -36.565865 -19.036928 -12.077747 10.974308 -4.277688 1.790906 -5.286354 -18.548166 30.114101 67.167271 4.474053 17.712294 2.792164 19.663982 9.351696 -16.313530 13.937320 -3.778381 -6.165134 0.000000 13.170554 0.000000 -6.161378 -3.288234 0.529785 0.000000 -8.524965 0.000000 -5.977571 -38.528674 1.863915 0.000000 2.294039 0.000000 -7.492262 33.473446 -2.989105 0.000000 -12.519517 0.000000
-87.934851 88.377222 -131.388062 25.225816 -3.621365 -0.975418 -7.564435 -0.837943 -4.130463 -5.875962 -1.419049 -3.975949 0.670305 -0.938310 -3.185277 3.503293 -1.163880 7.212447 1.994282 1.429176 2.967913 0.855691 -0.781076 -0.737194 5.780155 -0.727697 0.959987 -61.234352 -22.235178 -45.315984 -69.852539 -23.873751 -36.339701 -19.340503 -12.824946 11.118206 -4.288865 1.691081 -5.079180 -19.662596 30.744120 66.820172 4.414916 19.042010 2.199893 19.450299 8.675624 -15.997174 13.949536 -3.592945 -6.063884 0.000000 13.096822 0.000000 -6.199916 -3.354118 0.442626 0.000000 -8.472399 0.000000 -6.295267 -39.305711 2.177351 0.000000 1.443153 0.000000 -8.297859 33.946683 -2.796668 0.000000 -12.369860 0.000000
-87.883862 88.382178 -131.219324 25.122404 -3.791734 -0.974219 -6.598398 -0.837977 -5.882365 -4.332782 -0.433019 -3.848372 -0.137386 -0.974052 0.922188 1.763553 -1.501462 4.658641 2.053841 1.633774 2.795490 0.874044 -0.656689 -0.691123 5.772648 -0.860458 0.948197 -61.629538 -21.927801 -45.119602 -70.099368 -24.557873 -35.851789 -19.361484 -12.974914 10.731034 -4.123367 1.716922 -5.229484 -20.605483 31.350054 66.348740 4.412553 20.683865 1.985519 19.010037 7.809173 -16.215797 14.185442 -3.254201 -5.955427 0.000000 13.076669 0.000000 -6.343397 -3.525094 0.432828 0.000000 -8.406281 0.000000 -6.421292 -40.247967 2.403772 0.000000 1.187753 0.000000 -9.337279 34.323997 -2.421915 0.000000 -12.316304 0.000000
-87.807068 88.430182 -130.993103 24.914827 -3.843034 -1.060353 -6.414001 -0.655835 -5.798577 -4.221100 -1.034900 -3.823755 -0.260478 -0.698103 0.788901 1.731188 -1.190512 4.693048 2.044736 1.691308 2.815856 0.867175 -0.610437 -0.755434 5.722520 -1.091858 1.019733 -61.961033 -21.648890 -44.827633 -70.130695 -25.058536 -35.506892 -19.465218 -12.634231 10.885298 -3.937428 1.619748 -5.154708 -21.207610 31.907905 66.057747 4.420540 21.833992 1.879822 19.168513 7.064458 -15.903004 14.458651 -2.971637 -5.767781 0.000000 12.969747 0.000000 -6.446492 -3.615772 0.482610 0.000000 -8.394089 0.000000 -6.238393 -41.000652 2.606191 0.000000 0.384779 0.000000 -10.557915 35.496399 -2.787928 0.000000 -12.809738 0.000000
-87.744690 88.475403 -130.755444 24.849347 -3.901291 -1.258739 -6.368542 -0.793993 -5.838100 -4.199440 -1.112516 -3.698691 -0.369817 -0.594578 0.920202 1.650436 -0.838582 4.655259 2.180958 1.801403 2.687982 0.931636 -0.838827 -0.651179 5.829073 -1.193781 0.891161 -62.227811 -21.442253 -44.340097 -70.203515 -25.199684 -35.402918 -19.435120 -12.683094 11.479622 -3.589316 1.555478 -5.195448 -21.842584 32.291062 65.854463 4.392041 21.466561 1.769518 19.431400 7.265604 -15.471519 14.514855 -2.773155 -5.480523 0.000000 12.939240 0.000000 -6.471607 -3.742556 0.591037 0.000000 -8.342048 0.000000 -6.930432 -41.667640 3.365608 0.000000 -0.127960 0.000000 -11.402868 36.206300 -2.694957 0.000000 -12.677319 0.000000
-87.681366 88.515155 -130.545569 24.869980 -4.012684 -1.457042 -6.402876 -0.867983 -5.932942 -4.217895 -0.924947 -3.541412 -0.408811 -0.479301 1.121765 1.555628 -0.779440 4.568462 2.262128 1.686030 2.627549 0.964014 -0.710575 -0.705433 5.972699 -1.360419 0.840558 -62.360274 -21.294139 -44.163683 -69.812087 -25.515892 -35.228122 -19.406290 -12.580962 11.074594 -3.485043 1.469227 -5.200700 -22.490439 32.514190 65.377603 4.452848 22.244993 1.990290 19.164781 7.319669 -15.691046 14.354492 -2.612383 -5.223010 0.000000 13.018015 0.000000 -6.320443 -3.853609 0.742242 0.000000 -8.256064 0.000000 -7.604352 -42.391918 4.046323 0.000000 -0.236674 0.000000 -12.191667 36.479487 -2.755463 0.000000 -12.491495 0.000000
-87.635400 88.553589 -130.339856 24.841640 -4.195760 -1.660183 -6.214044 -0.850881 -6.166257 -4.012150 -0.630800 -3.332729 -0.584887 -0.403897 1.536741 1.253961 -0.751136 4.321506 2.265986 1.610694 2.579895 0.964200 -0.635302 -0.760113 6.046901 -1.497215 0.846554 -62.478545 -21.030781 -44.015305 -69.686204 -25.560437 -34.813057 -19.480533 -12.459108 10.350449 -3.440297 1.395822 -5.237379 -23.278114 32.596456 64.893007 4.496087 23.570324 2.049867 19.669412 6.402273 -15.204594 14.343065 -2.415086 -4.930431 0.000000 13.162677 0.000000 -6.240585 -3.986464 0.963547 0.000000 -8.229801 0.000000 -7.979791 -43.132207 4.587423 0.000000 -0.096597 0.000000 -13.052480 36.679718 -3.234962 0.000000 -12.332550 0.000000
-87.583801 88.592957 -130.156555 24.790164 -4.352359 -1.853735 -6.006242 -0.835843 -6.393538 -3.817229 -0.399373 -3.114314 -0.748107 -0.372287 2.073836 0.947090 -0.690590 3.964991 2.316868 1.599587 2.433766 0.983184 -0.502965 -0.689276 6.006007 -1.586726 0.773408 -62.487493 -20.560209 -43.886730 -69.880174 -25.400635 -34.366137 -19.146291 -12.244775 10.824609 -3.362114 1.353261 -5.318489 -23.814119 32.692077 64.664535 4.532559 24.199581 2.147482 19.880107 6.093252 -15.281576 14.236804 -2.214356 -4.674621 0.000000 13.222891 0.000000 -6.069793 -4.087340 1.122222 0.000000 -8.177214 0.000000 -8.412662 -43.879707 5.168704 0.000000 0.079066 0.000000 -13.455014 37.046427 -2.765800 0.000000 -12.128670 0.000000
-87.539441 88.639777 -129.948987 24.853457 -4.543398 -2.093599 -5.921281 -0.684315 -6.511322 -3.773699 -0.374034 -2.916569 -0.900332 -0.363962 2.361823 0.735644 -0.564165 3.802261 2.518267 1.688680 2.417166 1.069714 -0.586557 -0.775358 6.050534 -1.569149 0.624091 -62.355815 -20.326930 -43.636333 -69.267052 -25.706921 -34.600802 -19.073304 -11.648625 10.627271 -3.262954 1.457807 -5.366622 -24.026887 32.725252 64.592449 4.646802 24.439981 2.339347 19.897915 6.018328 -15.352508 14.025658 -2.037083 -4.359430 0.000000 13.375076 0.000000 -5.899510 -4.202437 1.265234 0.000000 -8.160551 0.000000 -8.793185 -44.466757 5.671699 0.000000 0.275472 0.000000 -13.743074 37.098585 -3.291730 0.000000 -11.916368 0.000000
-87.490271 88.689124 -129.739722 25.006339 -4.698254 -2.349941 -6.190787 -0.510814 -6.166158 -4.135300 -0.459825 -2.891038 -0.817770 -0.387855 1.746155 0.970979 -0.476563 4.192672 2.583066 1.882644 2.545993 1.098480 -0.791492 -0.965079 6.096717 -1.493950 0.636367 -62.091693 -20.265717 -43.605447 -69.073622 -25.246497 -34.594196 -19.562099 -12.284522 10.355076 -3.237821 1.483370 -5.294219 -24.261142 32.814326 64.404677 4.842264 24.872324 2.547399 19.789755 6.000911 -15.234432 13.622133 -1.926516 -4.064022 0.000000 13.564820 0.000000 -5.600788 -4.346615 1.383360 0.000000 -8.107520 0.000000 -8.777637 -45.118627 5.793871 0.000000 0.531061 0.000000 -14.055604 37.442366 -3.344102 0.000000 -11.858609 0.000000
-87.444403 88.725983 -129.538147 25.132698 -4.788912 -2.528770 -6.337104 -0.367619 -6.054429 -4.314272 -0.515195 -2.887068 -0.788729 -0.389478 1.641652 1.025961 -0.467012 4.261772 2.475136 2.124447 2.548578 1.058704 -1.138036 -0.952072 6.105232 -1.355413 0.695543 -61.696499 -20.339343 -43.662185 -68.503453 -25.252753 -34.934020 -19.800025 -11.671780 10.218690 -3.255469 1.472237 -5.226320 -24.655640 32.909590 64.137420 5.211082 25.020643 2.805078 19.794918 5.924779 -14.885211 13.049419 -1.843912 -3.871147 0.000000 13.686656 0.000000 -5.132570 -4.460464 1.434945 0.000000 -8.065735 0.000000 -8.604195 -45.764964 5.809536 0.000000 0.734138 0.000000 -14.180637 37.412034 -3.892540 0.000000 -11.484066 0.000000
-87.385553 88.769501 -129.333899 25.283193 -4.979877 -2.727343 -6.274189 -0.490348 -6.217692 -4.226296 -0.157239 -2.713373 -0.929924 -0.137125 1.939966 0.765384 -0.545962 4.087272 2.583857 1.968572 2.519046 1.106228 -1.097911 -1.024076 6.173337 -1.415556 0.787789 -61.246749 -20.422603 -43.914003 -68.180775 -25.099128 -35.083230 -19.726730 -11.637558 10.086777 -3.190647 1.367173 -5.231459 -25.084768 32.902843 63.871320 5.626056 25.393631 3.140063 19.912224 5.596721 -15.148787 12.943480 -1.671283 -3.603228 0.000000 13.893760 0.000000 -5.162965 -4.555713 1.557501 0.000000 -8.019669 0.000000 -8.485282 -46.224303 5.803582 0.000000 0.902880 0.000000 -13.833920 37.580709 -4.090095 0.000000 -11.526872 0.000000
-87.326306 88.819470 -129.130957 25.402707 -5.202913 -2.985995 -6.304328 -0.308603 -6.170575 -4.288055 -0.108520 -2.583479 -1.035250 -0.132832 2.007304 0.686726 -0.388118 4.119106 2.741205 1.919409 2.373303 1.174746 -1.111173 -1.002282 6.251215 -1.535053 0.644539 -60.771544 -20.367763 -44.054325 -67.807414 -25.329329 -35.501248 -19.467267 -11.458423 9.919468 -3.140302 1.325288 -5.287418 -25.596223 32.706813 63.568772 6.021655 25.813239 3.538491 19.803924 5.377506 -15.757729 12.828446 -1.485555 -3.258521 0.000000 14.112983 0.000000 -5.144080 -4.681201 1.620287 0.000000 -8.029161 0.000000 -8.233730 -46.571877 5.765345 0.000000 1.024139 0.000000 -13.512715 37.681518 -4.334414 0.000000 -11.400843 0.000000
-87.281567 88.865588 -128.939099 25.622295 -5.355080 -3.275014 -6.436760 -0.211449 -6.018144 -4.457759 -0.056121 -2.485894 -1.077933 -0.093311 1.891072 0.675999 -0.346007 4.192515 2.867545 1.963467 2.404639 1.227749 -1.111625 -1.075399 6.238339 -1.584652 0.554494 -60.430663 -20.117006 -44.116107 -67.721423 -25.285182 -35.609689 -19.702387 -11.472850 10.185693 -3.053444 1.409590 -5.212203 -26.008653 32.436298 63.364721 6.183769 25.963682 3.836440 20.151948 5.265309 -15.973304 12.540589 -1.438696 -2.908336 0.000000 14.409678 0.000000 -5.063968 -4.843715 1.589685 0.000000 -7.995430 0.000000 -8.199531 -46.945252 5.812578 0.000000 1.177788 0.000000 -12.839619 37.807911 -4.099414 0.000000 -11.328679 0.000000
